<?xml version="1.0" encoding="UTF-8" standalone="no"?>
<!DOCTYPE svg PUBLIC "-//W3C//DTD SVG 1.1//EN"
 "http://www.w3.org/Graphics/SVG/1.1/DTD/svg11.dtd">
<!-- Generated by graphviz version 2.36.0 (20140111.2315)
 -->
<!-- Title: G Pages: 1 -->
<svg width="187pt" height="204pt"
 viewBox="0.00 0.00 187.00 204.00" xmlns="http://www.w3.org/2000/svg" xmlns:xlink="http://www.w3.org/1999/xlink">
<g id="graph0" class="graph" transform="scale(1 1) rotate(0) translate(4 200)">
<title>G</title>
<polygon fill="white" stroke="none" points="-4,4 -4,-200 183,-200 183,4 -4,4"/>
<!-- file -->
<g id="node1" class="node"><title>file</title>
<polygon fill="none" stroke="black" points="116,-178 102.5,-196 75.5,-196 62,-178 75.5,-160 102.5,-160 116,-178"/>
<text text-anchor="middle" x="89" y="-174.3" font-family="Times,serif" font-size="14.00">file</text>
</g>
<!-- load&#45;file -->
<g id="node3" class="node"><title>load&#45;file</title>
<ellipse fill="none" stroke="black" cx="40" cy="-106" rx="39.9464" ry="18"/>
<text text-anchor="middle" x="40" y="-102.3" font-family="Times,serif" font-size="14.00">load&#45;file</text>
</g>
<!-- file&#45;&gt;load&#45;file -->
<g id="edge1" class="edge"><title>file&#45;&gt;load&#45;file</title>
<path fill="none" stroke="black" d="M76.8876,-159.697C71.046,-151.351 63.9292,-141.185 57.5109,-132.016"/>
<polygon fill="black" stroke="black" points="60.2376,-129.808 51.6356,-123.622 54.503,-133.822 60.2376,-129.808"/>
</g>
<!-- editor -->
<g id="node2" class="node"><title>editor</title>
<polygon fill="none" stroke="black" points="122.272,-18.5442 122.272,-33.4558 102.782,-44 75.2182,-44 55.7278,-33.4558 55.7278,-18.5442 75.2182,-8 102.782,-8 122.272,-18.5442"/>
<polygon fill="none" stroke="black" points="126.214,-16.1436 126.214,-35.8564 103.767,-48 74.2333,-48 51.7864,-35.8564 51.7864,-16.1436 74.2333,-4 103.767,-4 126.214,-16.1436"/>
<polygon fill="none" stroke="black" points="130.155,-13.743 130.155,-38.257 104.752,-52 73.2484,-52 47.8451,-38.257 47.8451,-13.743 73.2484,-3.55271e-15 104.752,-0 130.155,-13.743"/>
<text text-anchor="middle" x="89" y="-22.3" font-family="Times,serif" font-size="14.00">editor</text>
</g>
<!-- save&#45;file -->
<g id="node4" class="node"><title>save&#45;file</title>
<ellipse fill="none" stroke="black" cx="139" cy="-106" rx="40.4202" ry="18"/>
<text text-anchor="middle" x="139" y="-102.3" font-family="Times,serif" font-size="14.00">save&#45;file</text>
</g>
<!-- editor&#45;&gt;save&#45;file -->
<g id="edge3" class="edge"><title>editor&#45;&gt;save&#45;file</title>
<path fill="none" stroke="black" d="M105.104,-52.1225C110.825,-61.0474 117.261,-71.0873 122.976,-80.0018"/>
<polygon fill="black" stroke="black" points="120.053,-81.9282 128.396,-88.4582 125.946,-78.1506 120.053,-81.9282"/>
</g>
<!-- load&#45;file&#45;&gt;editor -->
<g id="edge2" class="edge"><title>load&#45;file&#45;&gt;editor</title>
<path fill="none" stroke="black" d="M50.3916,-88.4582C55.4677,-80.378 61.7693,-70.3468 67.7994,-60.7479"/>
<polygon fill="black" stroke="black" points="70.8621,-62.4521 73.2179,-52.1225 64.9347,-58.7284 70.8621,-62.4521"/>
</g>
<!-- save&#45;file&#45;&gt;file -->
<g id="edge4" class="edge"><title>save&#45;file&#45;&gt;file</title>
<path fill="none" stroke="black" d="M127.127,-123.622C121.178,-131.951 113.845,-142.217 107.204,-151.514"/>
<polygon fill="black" stroke="black" points="104.324,-149.525 101.36,-159.697 110.02,-153.594 104.324,-149.525"/>
</g>
</g>
</svg>
