<?xml version="1.0" encoding="UTF-8" standalone="no"?>
<!DOCTYPE svg PUBLIC "-//W3C//DTD SVG 1.1//EN"
 "http://www.w3.org/Graphics/SVG/1.1/DTD/svg11.dtd">
<!-- Generated by graphviz version 2.36.0 (20140111.2315)
 -->
<!-- Title: G Pages: 1 -->
<svg width="134pt" height="332pt"
 viewBox="0.00 0.00 134.00 332.00" xmlns="http://www.w3.org/2000/svg" xmlns:xlink="http://www.w3.org/1999/xlink">
<g id="graph0" class="graph" transform="scale(1 1) rotate(0) translate(4 328)">
<title>G</title>
<polygon fill="white" stroke="none" points="-4,4 -4,-328 130,-328 130,4 -4,4"/>
<!-- start -->
<g id="node1" class="node"><title>start</title>
<ellipse fill="none" stroke="black" cx="63" cy="-306" rx="27" ry="18"/>
<text text-anchor="middle" x="63" y="-302.3" font-family="Times,serif" font-size="14.00">start</text>
</g>
<!-- type check -->
<g id="node2" class="node"><title>type check</title>
<ellipse fill="none" stroke="black" cx="63" cy="-234" rx="48.6179" ry="18"/>
<text text-anchor="middle" x="63" y="-230.3" font-family="Times,serif" font-size="14.00">type check</text>
</g>
<!-- start&#45;&gt;type check -->
<g id="edge1" class="edge"><title>start&#45;&gt;type check</title>
<path fill="none" stroke="black" d="M63,-287.697C63,-279.983 63,-270.712 63,-262.112"/>
<polygon fill="black" stroke="black" points="66.5001,-262.104 63,-252.104 59.5001,-262.104 66.5001,-262.104"/>
</g>
<!-- evaluate racket -->
<g id="node3" class="node"><title>evaluate racket</title>
<ellipse fill="none" stroke="black" cx="63" cy="-162" rx="63.5411" ry="18"/>
<text text-anchor="middle" x="63" y="-158.3" font-family="Times,serif" font-size="14.00">evaluate racket</text>
</g>
<!-- type check&#45;&gt;evaluate racket -->
<g id="edge2" class="edge"><title>type check&#45;&gt;evaluate racket</title>
<path fill="none" stroke="black" d="M63,-215.697C63,-207.983 63,-198.712 63,-190.112"/>
<polygon fill="black" stroke="black" points="66.5001,-190.104 63,-180.104 59.5001,-190.104 66.5001,-190.104"/>
</g>
<!-- to data -->
<g id="node4" class="node"><title>to data</title>
<ellipse fill="none" stroke="black" cx="63" cy="-90" rx="34.1708" ry="18"/>
<text text-anchor="middle" x="63" y="-86.3" font-family="Times,serif" font-size="14.00">to data</text>
</g>
<!-- evaluate racket&#45;&gt;to data -->
<g id="edge3" class="edge"><title>evaluate racket&#45;&gt;to data</title>
<path fill="none" stroke="black" d="M63,-143.697C63,-135.983 63,-126.712 63,-118.112"/>
<polygon fill="black" stroke="black" points="66.5001,-118.104 63,-108.104 59.5001,-118.104 66.5001,-118.104"/>
</g>
<!-- paint -->
<g id="node5" class="node"><title>paint</title>
<ellipse fill="none" stroke="black" cx="63" cy="-18" rx="28.3955" ry="18"/>
<text text-anchor="middle" x="63" y="-14.3" font-family="Times,serif" font-size="14.00">paint</text>
</g>
<!-- to data&#45;&gt;paint -->
<g id="edge4" class="edge"><title>to data&#45;&gt;paint</title>
<path fill="none" stroke="black" d="M63,-71.6966C63,-63.9827 63,-54.7125 63,-46.1124"/>
<polygon fill="black" stroke="black" points="66.5001,-46.1043 63,-36.1043 59.5001,-46.1044 66.5001,-46.1043"/>
</g>
</g>
</svg>
